<?xml version="1.0" encoding="iso-8859-1"?>
<!-- Generator: Adobe Illustrator 19.0.0, SVG Export Plug-In . SVG Version: 6.00 Build 0)  -->
<svg version="1.1" id="Layer_1" xmlns="http://www.w3.org/2000/svg" xmlns:xlink="http://www.w3.org/1999/xlink" x="0px" y="0px"
	 viewBox="0 0 512 512" style="enable-background:new 0 0 512 512;" xml:space="preserve">
<path style="fill:#9CC2D0;" d="M317.146,84.748c-9.22,0-16.696-7.475-16.696-16.696V33.391h-88.9v34.661
	c0,9.22-7.475,16.696-16.696,16.696s-16.696-7.475-16.696-16.696V16.696c0-9.22,7.475-16.696,16.696-16.696h122.291
	c9.22,0,16.696,7.475,16.696,16.696v51.357C333.842,77.274,326.367,84.748,317.146,84.748z"/>
<path style="fill:#72ABC0;" d="M317.146,0H256v33.391h44.451v34.662c0,9.22,7.475,16.696,16.696,16.696s16.696-7.475,16.696-16.696
	V16.696C333.842,7.475,326.367,0,317.146,0z"/>
<path style="fill:#EFEFEF;" d="M388.284,512H123.716c-8.946,0-16.302-7.051-16.68-15.989L91.098,120.117
	c-0.403-9.485,7.186-17.402,16.68-17.402h296.442c9.494,0,17.083,7.917,16.68,17.402l-15.937,375.894
	C404.586,504.949,397.23,512,388.284,512z"/>
<g>
	<path style="fill:#C5D8DF;" d="M404.221,102.715H256V512h132.284c8.946,0,16.302-7.051,16.68-15.989l15.937-375.894
		C421.304,110.632,413.715,102.715,404.221,102.715z"/>
	<path style="fill:#C5D8DF;" d="M425.297,136.106H86.703c-9.22,0-16.696-7.475-16.696-16.696V68.053
		c0-9.22,7.475-16.696,16.696-16.696h338.593c9.22,0,16.696,7.475,16.696,16.696v51.357
		C441.993,128.631,434.518,136.106,425.297,136.106z"/>
</g>
<path style="fill:#9CC2D0;" d="M425.297,51.358H256v84.748h169.297c9.22,0,16.696-7.475,16.696-16.696V68.054
	C441.993,58.832,434.518,51.358,425.297,51.358z"/>
<g>
	<path style="fill:#C5D8DF;" d="M188.833,444.105c-9.22,0-16.696-7.475-16.696-16.696V220.695c0-9.22,7.475-16.696,16.696-16.696
		c9.22,0,16.696,7.475,16.696,16.696V427.41C205.529,436.63,198.054,444.105,188.833,444.105z"/>
	<path style="fill:#C5D8DF;" d="M255.997,444.105c-9.22,0-16.696-7.475-16.696-16.696V220.695c0-9.22,7.475-16.696,16.696-16.696
		c9.22,0,16.696,7.475,16.696,16.696V427.41C272.692,436.63,265.217,444.105,255.997,444.105z"/>
</g>
<g>
	<path style="fill:#9CC2D0;" d="M256,204.001v240.105c9.219-0.002,16.692-7.476,16.692-16.696V220.695
		C272.692,211.477,265.219,204.003,256,204.001z"/>
	<path style="fill:#9CC2D0;" d="M323.16,444.105c-9.22,0-16.696-7.475-16.696-16.696V220.695c0-9.22,7.475-16.696,16.696-16.696
		c9.22,0,16.696,7.475,16.696,16.696V427.41C339.856,436.63,332.38,444.105,323.16,444.105z"/>
</g>
<g>
</g>
<g>
</g>
<g>
</g>
<g>
</g>
<g>
</g>
<g>
</g>
<g>
</g>
<g>
</g>
<g>
</g>
<g>
</g>
<g>
</g>
<g>
</g>
<g>
</g>
<g>
</g>
<g>
</g>
</svg>
